<mxfile host="app.diagrams.net" modified="2023-04-09T09:33:49.932Z" agent="Mozilla/5.0 (Macintosh; Intel Mac OS X 10_15_7) AppleWebKit/537.36 (KHTML, like Gecko) Chrome/111.0.0.0 Safari/537.36" etag="o3XA_3kP4qjWsy8Tjog8" version="21.1.5" type="device">
  <diagram name="Halaman-1" id="LnaJ1S_Cmfq9FiTbPX6n">
    <mxGraphModel dx="1194" dy="684" grid="1" gridSize="10" guides="1" tooltips="1" connect="1" arrows="1" fold="1" page="1" pageScale="1" pageWidth="827" pageHeight="1169" math="0" shadow="0">
      <root>
        <mxCell id="0" />
        <mxCell id="1" parent="0" />
        <mxCell id="YnivpD2uuantLoyiQlYW-1" value="" style="rounded=0;whiteSpace=wrap;html=1;dashed=1;" vertex="1" parent="1">
          <mxGeometry x="120" y="180" width="240" height="170" as="geometry" />
        </mxCell>
        <mxCell id="YnivpD2uuantLoyiQlYW-6" style="edgeStyle=orthogonalEdgeStyle;rounded=0;orthogonalLoop=1;jettySize=auto;html=1;exitX=1;exitY=0.75;exitDx=0;exitDy=0;entryX=0;entryY=0.25;entryDx=0;entryDy=0;startArrow=classic;startFill=1;endArrow=none;endFill=0;" edge="1" parent="1" source="YnivpD2uuantLoyiQlYW-2" target="YnivpD2uuantLoyiQlYW-5">
          <mxGeometry relative="1" as="geometry" />
        </mxCell>
        <mxCell id="YnivpD2uuantLoyiQlYW-7" style="edgeStyle=orthogonalEdgeStyle;rounded=0;orthogonalLoop=1;jettySize=auto;html=1;exitX=1;exitY=0.25;exitDx=0;exitDy=0;entryX=0;entryY=0.75;entryDx=0;entryDy=0;endArrow=none;endFill=0;startArrow=classic;startFill=1;" edge="1" parent="1" source="YnivpD2uuantLoyiQlYW-2" target="YnivpD2uuantLoyiQlYW-4">
          <mxGeometry relative="1" as="geometry" />
        </mxCell>
        <mxCell id="YnivpD2uuantLoyiQlYW-2" value="kilat-graphql" style="rounded=0;whiteSpace=wrap;html=1;" vertex="1" parent="1">
          <mxGeometry x="140" y="235" width="120" height="60" as="geometry" />
        </mxCell>
        <mxCell id="YnivpD2uuantLoyiQlYW-4" value="Resolver" style="rounded=0;whiteSpace=wrap;html=1;" vertex="1" parent="1">
          <mxGeometry x="300" y="190" width="120" height="60" as="geometry" />
        </mxCell>
        <mxCell id="YnivpD2uuantLoyiQlYW-5" value="Schema" style="rounded=0;whiteSpace=wrap;html=1;" vertex="1" parent="1">
          <mxGeometry x="300" y="280" width="120" height="60" as="geometry" />
        </mxCell>
        <mxCell id="YnivpD2uuantLoyiQlYW-8" value="REMORA" style="text;html=1;align=center;verticalAlign=middle;resizable=0;points=[];autosize=1;strokeColor=none;fillColor=none;" vertex="1" parent="1">
          <mxGeometry x="200" y="165" width="80" height="30" as="geometry" />
        </mxCell>
        <mxCell id="YnivpD2uuantLoyiQlYW-9" value="" style="rounded=0;whiteSpace=wrap;html=1;dashed=1;" vertex="1" parent="1">
          <mxGeometry x="460" y="180" width="240" height="170" as="geometry" />
        </mxCell>
        <mxCell id="YnivpD2uuantLoyiQlYW-12" style="edgeStyle=orthogonalEdgeStyle;rounded=0;orthogonalLoop=1;jettySize=auto;html=1;exitX=0;exitY=0.5;exitDx=0;exitDy=0;entryX=1;entryY=0.5;entryDx=0;entryDy=0;" edge="1" parent="1" source="YnivpD2uuantLoyiQlYW-10" target="YnivpD2uuantLoyiQlYW-4">
          <mxGeometry relative="1" as="geometry" />
        </mxCell>
        <mxCell id="YnivpD2uuantLoyiQlYW-10" value="Javascript&lt;br&gt;Function" style="rounded=0;whiteSpace=wrap;html=1;" vertex="1" parent="1">
          <mxGeometry x="490" y="190" width="120" height="60" as="geometry" />
        </mxCell>
        <mxCell id="YnivpD2uuantLoyiQlYW-13" style="edgeStyle=orthogonalEdgeStyle;rounded=0;orthogonalLoop=1;jettySize=auto;html=1;exitX=0;exitY=0.5;exitDx=0;exitDy=0;entryX=1;entryY=0.5;entryDx=0;entryDy=0;" edge="1" parent="1" source="YnivpD2uuantLoyiQlYW-11" target="YnivpD2uuantLoyiQlYW-5">
          <mxGeometry relative="1" as="geometry" />
        </mxCell>
        <mxCell id="YnivpD2uuantLoyiQlYW-11" value="GraphQL Schema" style="rounded=0;whiteSpace=wrap;html=1;" vertex="1" parent="1">
          <mxGeometry x="490" y="280" width="120" height="60" as="geometry" />
        </mxCell>
        <mxCell id="YnivpD2uuantLoyiQlYW-14" value="LAMBDA" style="text;html=1;align=center;verticalAlign=middle;resizable=0;points=[];autosize=1;strokeColor=none;fillColor=none;" vertex="1" parent="1">
          <mxGeometry x="555" y="165" width="70" height="30" as="geometry" />
        </mxCell>
      </root>
    </mxGraphModel>
  </diagram>
</mxfile>
